<?xml version="1.0" encoding="iso-8859-1"?>
<!-- Generator: Adobe Illustrator 21.0.0, SVG Export Plug-In . SVG Version: 6.00 Build 0)  -->
<svg xmlns="http://www.w3.org/2000/svg" xmlns:xlink="http://www.w3.org/1999/xlink" version="1.1" id="Capa_1" x="0px" y="0px" viewBox="0 0 512.057 512.057" style="enable-background:new 0 0 512.057 512.057;" xml:space="preserve" width="512" height="512">
<g>
	<circle style="fill:#C4C8D1;" cx="256.029" cy="256.029" r="248.5"/>
	<path style="fill:#B4B7BF;" d="M256.029,7.529c-9.823,0-19.507,0.589-29.033,1.697c123.561,14.381,219.467,119.383,219.467,246.803   S350.556,488.45,226.996,502.831c9.526,1.109,19.21,1.697,29.033,1.697c137.243,0,248.5-111.257,248.5-248.5   S393.271,7.529,256.029,7.529z"/>
	<path style="fill:#787780;" d="M365.992,33.141c-16.914,9.269-28.384,27.234-28.384,47.882c0,30.137,24.431,54.567,54.567,54.567   c25.418,0,46.776-17.379,52.842-40.902C423.225,69.186,396.364,48.154,365.992,33.141z"/>
	<path style="fill:#67666E;" d="M413.016,131.458c15.689-6.491,27.697-20.08,32.001-36.771c-0.001-0.002-0.003-0.003-0.004-0.005   c-17.701-20.713-38.746-38.477-62.3-52.462c-0.013-0.008-0.026-0.016-0.04-0.024c-1.793-1.064-3.601-2.106-5.423-3.127   c-0.025-0.014-0.05-0.028-0.074-0.042c-1.819-1.017-3.651-2.013-5.498-2.985c-0.02-0.011-0.041-0.021-0.061-0.032   c-1.86-0.979-3.734-1.936-5.622-2.869c-0.001,0-0.002-0.001-0.003-0.002c-9.225,5.056-16.825,12.702-21.833,21.956   C372.078,75.442,395.597,101.457,413.016,131.458z"/>
	<circle style="fill:#787780;" cx="429.65" cy="318.365" r="28.829"/>
	<path style="fill:#67666E;" d="M429.65,289.537c-3.516,0-6.884,0.631-10,1.784c10.992,4.066,18.829,14.639,18.829,27.045   s-7.837,22.979-18.829,27.045c3.116,1.152,6.484,1.784,10,1.784c15.922,0,28.829-12.907,28.829-28.829   S445.571,289.537,429.65,289.537z"/>
	<circle style="fill:#787780;" cx="295.616" cy="210.695" r="39.587"/>
	<path style="fill:#67666E;" d="M295.616,171.108c-4,0-7.86,0.599-11.5,1.702c16.253,4.928,28.087,20.022,28.087,37.885   s-11.834,32.957-28.087,37.885c3.64,1.104,7.5,1.702,11.5,1.702c21.863,0,39.587-17.724,39.587-39.587   S317.479,171.108,295.616,171.108z"/>
	<circle style="fill:#787780;" cx="162.469" cy="100.096" r="35.494"/>
	<path style="fill:#67666E;" d="M162.469,64.602c-4.496,0-8.792,0.844-12.75,2.369c13.302,5.124,22.744,18.018,22.744,33.125   s-9.442,28.001-22.744,33.125c3.958,1.525,8.254,2.369,12.75,2.369c19.603,0,35.494-15.891,35.494-35.494   S182.072,64.602,162.469,64.602z"/>
	<circle style="fill:#787780;" cx="174.91" cy="342.064" r="70.055"/>
	<path style="fill:#67666E;" d="M174.91,272.008c-6.952,0-13.661,1.027-20,2.913c28.943,8.609,50.055,35.404,50.055,67.142   s-21.113,58.533-50.055,67.142c6.339,1.886,13.048,2.913,20,2.913c38.69,0,70.055-31.365,70.055-70.055   C244.965,303.373,213.6,272.008,174.91,272.008z"/>
	<g>
		<path d="M465.979,318.337c0-20.032-16.297-36.329-36.328-36.329c-20.032,0-36.329,16.297-36.329,36.329    c0,20.031,16.297,36.328,36.329,36.328C449.682,354.665,465.979,338.368,465.979,318.337z M408.322,318.337    c0-11.761,9.568-21.329,21.329-21.329s21.328,9.568,21.328,21.329s-9.567,21.328-21.328,21.328S408.322,330.098,408.322,318.337z"/>
		<path d="M295.616,257.753c25.964,0,47.087-21.123,47.087-47.087s-21.123-47.087-47.087-47.087s-47.087,21.123-47.087,47.087    S269.653,257.753,295.616,257.753z M295.616,178.579c17.692,0,32.087,14.395,32.087,32.087s-14.395,32.087-32.087,32.087    s-32.087-14.395-32.087-32.087S277.924,178.579,295.616,178.579z"/>
		<path d="M162.47,143.062c23.707,0,42.994-19.287,42.994-42.994s-19.287-42.994-42.994-42.994s-42.994,19.287-42.994,42.994    S138.763,143.062,162.47,143.062z M162.47,72.073c15.436,0,27.994,12.559,27.994,27.994s-12.559,27.994-27.994,27.994    s-27.994-12.559-27.994-27.994S147.034,72.073,162.47,72.073z"/>
		<path d="M174.91,419.591c29.57,0,56.162-16.452,69.398-42.936c1.852-3.705,0.35-8.21-3.356-10.062    c-3.703-1.852-8.21-0.35-10.062,3.356c-10.679,21.367-32.13,34.641-55.98,34.641c-34.493,0-62.555-28.063-62.555-62.556    s28.062-62.556,62.555-62.556c34.008,0,62.06,27.666,62.532,61.672c0.057,4.106,3.403,7.396,7.497,7.396    c4.185,0,7.559-3.422,7.501-7.604c-0.588-42.379-35.058-76.463-77.53-76.463c-42.764,0-77.555,34.791-77.555,77.556    S132.147,419.591,174.91,419.591z"/>
		<path d="M256.03,0C171.925,0,93.132,41.38,45.26,110.69c-2.354,3.408-1.5,8.08,1.908,10.434c3.411,2.354,8.08,1.499,10.434-1.908    c65.836-95.32,189.148-129.59,293.431-84.684c-42.545,37.691-15.909,108.529,41.143,108.529c23.574,0,44.639-13.262,55.118-33.504    c31.174,40.619,49.736,91.4,49.736,146.443c0,132.888-108.112,241-241,241C73.151,497-41.011,301.361,43.077,143.093    c1.943-3.657,0.554-8.198-3.104-10.142s-8.198-0.553-10.142,3.104C-20.555,230.889-8.061,353.947,75.01,437.02    c100.046,100.044,261.981,100.056,362.039,0c48.352-48.353,74.98-112.64,74.98-181.02C512.03,114.488,397.287,0,256.03,0z     M392.176,128.062c-25.953,0-47.067-21.114-47.067-47.067c0-15.887,8.007-30.601,21.133-39.278    c26.752,13.815,50.593,32.5,70.361,54.866C430.058,115.302,412.322,128.062,392.176,128.062z"/>
	</g>
</g>















</svg>
